<svg width="137" height="45" viewBox="0 0 137 45" fill="none" xmlns="http://www.w3.org/2000/svg">
<g clip-path="url(#clip0_7919_67)">
<rect width="136.216" height="44.434" rx="8" fill="black"/>
<path d="M35.5287 29.4464C34.7977 31.0388 34.4584 31.7698 33.5447 33.1794C32.2395 35.1634 30.4121 37.6173 28.1671 37.6173C26.157 37.6434 25.6349 36.312 22.92 36.312C20.2051 36.3381 19.6308 37.6173 17.6207 37.6173C15.3495 37.5912 13.6266 35.3723 12.3214 33.4144C8.69278 27.9062 8.32731 21.4322 10.5462 17.9863C12.1386 15.5325 14.6447 14.1228 16.9942 14.1228C19.3958 14.1228 20.9099 15.4281 22.8939 15.4281C24.8257 15.4281 26.0004 14.1228 28.7675 14.1228C30.8559 14.1228 33.0748 15.2714 34.6672 17.2293C29.4462 20.0747 30.2816 27.4624 35.5287 29.4464Z" fill="white"/>
<path d="M26.627 11.9039C27.645 10.5987 28.4021 8.79742 28.1149 6.91786C26.4703 7.02228 24.5386 8.06649 23.416 9.45005C22.3979 10.677 21.5626 12.5304 21.8758 14.3056C23.7032 14.3839 25.5566 13.3136 26.627 11.9039Z" fill="white"/>
<path d="M46.5714 17.908L41.3765 33.1794H43.752L45.2922 28.4805H50.3044L51.8968 33.1794H54.3506L49.1296 17.908H46.5714ZM47.7983 20.414C47.981 21.0928 48.1638 21.7976 48.3987 22.5807L49.8084 26.627H45.8404L47.224 22.5547C47.4067 21.902 47.6156 21.1711 47.7983 20.414Z" fill="white"/>
<path d="M61.0597 21.8759C59.4934 21.8759 58.2142 22.4763 57.3789 23.6511L57.2744 22.137H55.186V22.3197C55.2382 23.2595 55.2643 24.3037 55.2643 25.7916V37.565H57.5877V32.0829C58.2925 32.9444 59.4411 33.4404 60.7464 33.4404C62.1038 33.4404 63.3308 32.9183 64.2445 31.9524C65.2626 30.8821 65.7847 29.3419 65.7847 27.5146C65.7847 25.8961 65.3148 24.4864 64.4533 23.4683C63.5918 22.4241 62.391 21.8759 61.0597 21.8759ZM60.4853 23.7816C62.5476 23.7816 63.4613 25.6872 63.4613 27.5929C63.4613 30.0207 62.2866 31.5347 60.3809 31.5347C59.0757 31.5347 57.9793 30.6472 57.666 29.3941C57.6138 29.1853 57.5877 28.9504 57.5877 28.6371V26.7836C57.5877 26.627 57.6138 26.4182 57.666 26.2093C57.666 26.1571 57.6921 26.0788 57.6921 26.0266C58.0576 24.6952 59.2062 23.7816 60.4853 23.7816Z" fill="white"/>
<path d="M72.9632 21.8759C71.3969 21.8759 70.1178 22.4763 69.2824 23.6511L69.178 22.137H67.0635V22.3197C67.1157 23.2595 67.1418 24.3037 67.1418 25.7916V37.565H69.4651V32.0829C70.17 32.9444 71.3186 33.4404 72.6238 33.4404C73.9813 33.4404 75.2082 32.9183 76.1219 31.9524C77.14 30.8821 77.6621 29.3419 77.6621 27.5146C77.6621 25.8961 77.1922 24.4864 76.3307 23.4683C75.4954 22.4241 74.2946 21.8759 72.9632 21.8759ZM72.3889 23.7816C74.4512 23.7816 75.3649 25.6872 75.3649 27.5929C75.3649 30.0207 74.1901 31.5347 72.2845 31.5347C71.0053 31.5347 69.8828 30.6472 69.5696 29.3941C69.5173 29.1853 69.4912 28.9504 69.4912 28.6371V26.7836C69.4912 26.627 69.5173 26.4182 69.5696 26.2093C69.5696 26.1571 69.5957 26.0788 69.5957 26.0266C69.9611 24.6952 71.0836 23.7816 72.3889 23.7816Z" fill="white"/>
<path d="M87.8692 24.382C85.7025 23.5466 85.0238 22.894 85.0238 21.6671C85.0238 20.649 85.833 19.6048 87.6604 19.6048C89.1484 19.6048 90.1142 20.1269 90.3753 20.2835L90.5841 20.414L91.2368 18.4823L91.1062 18.4039C90.7147 18.169 89.6183 17.6469 87.7387 17.6469C84.7888 17.6469 82.7265 19.3959 82.7265 21.8759C82.7265 23.886 84.0057 25.2957 86.7728 26.2876C88.7307 27.0186 89.4616 27.7756 89.4616 29.0548C89.4616 30.5166 88.3391 31.4042 86.5118 31.4042C85.337 31.4042 84.1101 31.0649 83.1703 30.4644L82.9615 30.3339L82.335 32.3179L82.4394 32.3962C83.3008 32.9705 84.9455 33.3882 86.3551 33.3882C90.3231 33.3882 91.7328 30.9604 91.7328 28.8981C91.7589 26.7836 90.6363 25.4784 87.8692 24.382Z" fill="white"/>
<path d="M95.9355 19.4742L93.6644 20.179V22.1108H91.9937V23.9642H93.6644V29.629C93.6644 30.9865 93.9254 31.9524 94.4736 32.5528C94.9957 33.1271 95.7789 33.4404 96.7187 33.4404C97.5801 33.4404 98.2066 33.2576 98.4938 33.1532L98.6243 33.101L98.5199 31.2475L98.3111 31.3259C98.0239 31.4042 97.7106 31.4564 97.2408 31.4564C96.3532 31.4564 95.9616 30.8821 95.9616 29.5507V23.9642H98.7548V22.1108H95.9616V19.4742H95.9355Z" fill="white"/>
<path d="M104.446 21.8759C101.209 21.8759 98.9639 24.2776 98.9639 27.7495C98.9639 31.091 101.157 33.4404 104.289 33.4404H104.315C106.952 33.4404 109.797 31.587 109.797 27.5407C109.797 25.8961 109.301 24.4864 108.336 23.4422C107.344 22.4241 106.012 21.8759 104.446 21.8759ZM104.368 23.7032C106.456 23.7032 107.396 25.7394 107.396 27.619C107.396 29.9423 106.117 31.6131 104.315 31.6131H104.289C102.54 31.6131 101.261 29.9685 101.261 27.6712C101.287 25.6872 102.253 23.7032 104.368 23.7032Z" fill="white"/>
<path d="M116.846 21.9803L116.715 21.9542C116.506 21.902 116.35 21.8759 116.141 21.8759C114.94 21.8759 113.844 22.5807 113.243 23.7293L113.165 22.1109H111.103L111.129 22.2936C111.181 23.2073 111.207 24.2254 111.207 25.6089L111.181 33.1533H113.504V27.2535C113.504 26.9403 113.53 26.627 113.556 26.366C113.817 24.9563 114.783 24.0426 115.984 24.0426C116.219 24.0426 116.402 24.0687 116.611 24.0687L116.846 24.0948V21.9803Z" fill="white"/>
<path d="M122.041 21.8498C118.96 21.8498 116.82 24.3036 116.82 27.8278C116.82 31.2214 118.96 33.4143 122.276 33.4143C124.025 33.4143 125.226 33.0227 125.93 32.7094L126.061 32.6572L125.617 30.9343L125.434 31.0126C124.808 31.2736 123.973 31.5347 122.537 31.5347C121.545 31.5347 119.221 31.1954 119.065 28.1933L126.531 28.2194L126.557 28.0628C126.609 27.8278 126.635 27.5145 126.635 27.0969C126.635 24.6691 125.434 21.8498 122.041 21.8498ZM121.91 23.5988C122.615 23.5988 123.189 23.8076 123.607 24.2514C124.26 24.9301 124.39 25.9221 124.39 26.392H119.117C119.326 25.0607 120.161 23.5988 121.91 23.5988Z" fill="white"/>
<path d="M41.3765 7.49216C42.0291 7.41384 42.76 7.33553 43.5954 7.33553C45.0834 7.33553 46.1537 7.64878 46.8585 8.22309C47.5894 8.82351 48.0071 9.65887 48.0071 10.8336C48.0071 12.0083 47.5894 12.9742 46.8585 13.6529C46.1015 14.3317 44.8484 14.6971 43.3082 14.6971C42.5512 14.6971 41.9508 14.671 41.4026 14.6188V7.49216H41.3765ZM42.4207 13.8879C42.6817 13.9401 43.0733 13.9401 43.4649 13.9401C45.6838 13.9401 46.8846 12.8176 46.8846 10.8858C46.8846 9.16288 45.8143 8.09257 43.6215 8.09257C43.0733 8.09257 42.6817 8.14478 42.3946 8.19699V13.8879H42.4207Z" fill="white"/>
<path d="M51.7139 14.7232C50.1737 14.7232 48.9468 13.7051 48.9468 12.0605C48.9468 10.3114 50.2259 9.29336 51.8183 9.29336C53.4629 9.29336 54.5855 10.3636 54.5855 11.9561C54.5855 13.8878 53.0714 14.7232 51.7139 14.7232ZM51.74 14.0184C52.732 14.0184 53.489 13.183 53.489 11.9822C53.489 11.0946 52.993 9.99818 51.7661 9.99818C50.5392 9.99818 49.991 11.0163 49.991 12.0083C49.991 13.1569 50.7219 14.0184 51.74 14.0184Z" fill="white"/>
<path d="M56.2299 9.42404L57.0131 12.0606C57.1697 12.6349 57.3263 13.1832 57.4308 13.7314H57.4569C57.5874 13.2093 57.7701 12.661 57.979 12.0867L58.9187 9.45014H59.8063L60.6939 12.0345C60.9027 12.635 61.0855 13.2093 61.216 13.7314H61.2421C61.3465 13.2093 61.5031 12.6611 61.6859 12.0345L62.4951 9.42404H63.5393L61.6859 14.6189H60.72L59.8324 12.1389C59.6236 11.5385 59.4669 11.0425 59.3103 10.416H59.2842C59.1537 11.0425 58.971 11.5907 58.7621 12.1389L57.8223 14.5928H56.8564L55.1074 9.39793H56.2299V9.42404Z" fill="white"/>
<path d="M64.5835 10.8335C64.5835 10.2853 64.5835 9.86767 64.5312 9.42388H65.471L65.5232 10.2592H65.5494C65.8365 9.78934 66.5152 9.29336 67.455 9.29336C68.2643 9.29336 69.4912 9.71104 69.4912 11.5123V14.6188H68.447V11.6167C68.447 10.7813 68.1076 10.0765 67.1156 10.0765C66.4369 10.0765 65.8887 10.5203 65.706 11.0424C65.6538 11.1729 65.6277 11.3295 65.6277 11.4862V14.6188H64.5835V10.8335Z" fill="white"/>
<path d="M71.1885 6.99622H72.2327V14.6189H71.1885V6.99622Z" fill="white"/>
<path d="M76.3311 14.7232C74.7909 14.7232 73.564 13.7051 73.564 12.0605C73.564 10.3114 74.8431 9.29336 76.4355 9.29336C78.0801 9.29336 79.2026 10.3636 79.2026 11.9561C79.2026 13.8878 77.7147 14.7232 76.3311 14.7232ZM76.3833 14.0184C77.3753 14.0184 78.1323 13.183 78.1323 11.9822C78.1323 11.0946 77.6363 9.99818 76.4094 9.99818C75.1825 9.99818 74.6343 11.0163 74.6343 12.0083C74.6343 13.1569 75.3391 14.0184 76.3833 14.0184Z" fill="white"/>
<path d="M84.6062 13.3658C84.6062 13.8096 84.6323 14.2534 84.6845 14.6188H83.7448L83.6403 13.9662H83.6142C83.301 14.3839 82.6745 14.7494 81.8391 14.7494C80.6644 14.7494 80.064 14.0184 80.064 13.2614C80.064 12.0083 81.2909 11.3296 83.5359 11.3296V11.2252C83.5359 10.8075 83.4054 10.0244 82.2307 10.0244C81.6825 10.0244 81.1343 10.1549 80.7166 10.416L80.4816 9.78943C80.9515 9.52838 81.6564 9.34564 82.3873 9.34564C84.1625 9.34564 84.5801 10.416 84.5801 11.4602V13.3658H84.6062ZM83.562 11.9561C82.4134 11.93 81.1082 12.1128 81.1082 13.1309C81.1082 13.7574 81.552 14.0445 82.0741 14.0445C82.8311 14.0445 83.3271 13.6269 83.4837 13.1831C83.5098 13.0787 83.5359 12.9742 83.5359 12.8698V11.9561H83.562Z" fill="white"/>
<path d="M91.2631 6.99617V13.2614C91.2631 13.7313 91.2631 14.2534 91.3153 14.5927H90.3755L90.3233 13.6791H90.2972C89.984 14.2534 89.2791 14.6971 88.3393 14.6971C86.9558 14.6971 85.8594 13.6268 85.8594 12.0605C85.8594 10.3115 87.0602 9.26731 88.4438 9.26731C89.3313 9.26731 89.9318 9.63278 90.1928 10.0505H90.2189V6.97008H91.2631V6.99617ZM90.2189 11.5384C90.2189 11.4079 90.2189 11.2513 90.1667 11.1208C90.0101 10.5204 89.4358 10.0505 88.6526 10.0505C87.5562 10.0505 86.9297 10.9119 86.9297 12.0344C86.9297 13.1047 87.504 13.9662 88.6265 13.9662C89.3313 13.9662 89.984 13.5485 90.1667 12.8437C90.1928 12.7132 90.2189 12.5827 90.2189 12.426V11.5384Z" fill="white"/>
<path d="M97.8677 14.7232C96.3275 14.7232 95.1006 13.7051 95.1006 12.0605C95.1006 10.3114 96.3797 9.29336 97.9721 9.29336C99.6167 9.29336 100.739 10.3636 100.739 11.9561C100.739 13.8878 99.2513 14.7232 97.8677 14.7232ZM97.8938 14.0184C98.8858 14.0184 99.6428 13.183 99.6428 11.9822C99.6428 11.0946 99.1469 9.99818 97.9199 9.99818C96.693 9.99818 96.1448 11.0163 96.1448 12.0083C96.1709 13.1569 96.8757 14.0184 97.8938 14.0184Z" fill="white"/>
<path d="M102.07 10.8335C102.07 10.2853 102.07 9.86767 102.018 9.42388H102.958L103.01 10.2592H103.036C103.323 9.78934 104.002 9.29336 104.942 9.29336C105.751 9.29336 106.978 9.71104 106.978 11.5123V14.6188H105.934V11.6167C105.934 10.7813 105.594 10.0765 104.602 10.0765C103.924 10.0765 103.376 10.5203 103.193 11.0424C103.141 11.1729 103.114 11.3295 103.114 11.4862V14.6188H102.07V10.8335Z" fill="white"/>
<path d="M112.46 8.17084V9.42389H113.974V10.1548H112.46V12.9481C112.46 13.6007 112.669 13.9661 113.243 13.9661C113.53 13.9661 113.687 13.94 113.844 13.9139L113.896 14.6449C113.687 14.6971 113.374 14.7754 112.956 14.7754C112.46 14.7754 112.069 14.6188 111.834 14.3838C111.546 14.0967 111.416 13.6268 111.416 13.0264V10.207H110.528V9.47609H111.416V8.51022L112.46 8.17084Z" fill="white"/>
<path d="M115.149 6.99622H116.193V10.2332H116.219C116.376 9.97219 116.637 9.71114 116.976 9.58062C117.29 9.39788 117.655 9.31957 118.047 9.31957C118.83 9.31957 120.057 9.73725 120.057 11.5385V14.6189H119.012V11.6429C119.012 10.8076 118.673 10.1027 117.681 10.1027C117.002 10.1027 116.48 10.5204 116.271 11.0425C116.219 11.173 116.193 11.3035 116.193 11.4863V14.6189H115.149V6.99622Z" fill="white"/>
<path d="M122.354 12.1651C122.38 13.4442 123.267 13.9663 124.312 13.9663C125.069 13.9663 125.539 13.8358 125.904 13.7052L126.087 14.3579C125.721 14.5145 125.069 14.6972 124.155 14.6972C122.38 14.6972 121.31 13.6269 121.31 12.0867C121.31 10.5204 122.354 9.26739 124.024 9.26739C125.904 9.26739 126.4 10.7554 126.4 11.7213C126.4 11.904 126.4 12.0606 126.374 12.1651H122.354ZM125.434 11.5124C125.434 10.912 125.147 9.97223 123.998 9.97223C122.928 9.97223 122.484 10.8598 122.38 11.5124H125.434Z" fill="white"/>
</g>
<defs>
<clipPath id="clip0_7919_67">
<rect width="136.216" height="44.434" fill="white"/>
</clipPath>
</defs>
</svg>
