<svg width="137" height="45" viewBox="0 0 137 45" fill="none" xmlns="http://www.w3.org/2000/svg">
<g clip-path="url(#clip0_7919_32)">
<rect x="0.78418" width="136.216" height="44.434" rx="8" fill="black"/>
<path d="M12.2393 9.13428V23.9097V38.7112L27.1452 23.9097L12.2393 9.13428Z" fill="url(#paint0_linear_7919_32)"/>
<path d="M31.1654 19.9416L25.1351 16.4697L12.2393 9.02975V9.13417L27.1452 23.9096L31.1654 19.9416Z" fill="url(#paint1_linear_7919_32)"/>
<path d="M12.2393 38.7112V38.8156L25.1351 31.3757L31.1654 27.9037L27.1452 23.9096L12.2393 38.7112Z" fill="url(#paint2_linear_7919_32)"/>
<path d="M31.1652 19.9417L27.145 23.9097L31.1652 27.9037L38.0308 23.9097L31.1652 19.9417Z" fill="url(#paint3_linear_7919_32)"/>
<path d="M106.139 29.7048C105.591 29.7048 105.069 29.6004 104.599 29.3916C104.129 29.1827 103.737 28.8695 103.424 28.4257H103.346C103.398 28.9217 103.45 29.3916 103.45 29.8615V33.4117H102.145V20.9597H103.215L103.398 22.1344H103.45C103.79 21.6645 104.181 21.3251 104.625 21.1163C105.069 20.9074 105.591 20.803 106.165 20.803C107.314 20.803 108.175 21.1946 108.802 21.9777C109.428 22.7609 109.742 23.8573 109.742 25.267C109.742 26.6766 109.428 27.7731 108.802 28.5562C108.123 29.3132 107.262 29.7048 106.139 29.7048ZM105.956 21.8994C105.069 21.8994 104.442 22.1344 104.051 22.6304C103.659 23.1264 103.45 23.8834 103.45 24.9537V25.2409C103.45 26.4417 103.659 27.3032 104.051 27.8253C104.442 28.3474 105.095 28.6084 105.982 28.6084C106.713 28.6084 107.314 28.2952 107.731 27.6947C108.149 27.0943 108.358 26.259 108.358 25.2148C108.358 24.1445 108.149 23.3091 107.731 22.7348C107.314 22.1866 106.713 21.8994 105.956 21.8994Z" fill="white"/>
<path d="M112.717 29.5482H111.412V17.3311H112.717V29.5482Z" fill="white"/>
<path d="M120.21 29.5482L119.948 28.3213H119.896C119.479 28.8695 119.035 29.2349 118.617 29.4177C118.199 29.6004 117.651 29.7048 117.025 29.7048C116.163 29.7048 115.511 29.496 115.015 29.0522C114.519 28.6084 114.284 27.9819 114.284 27.1726C114.284 25.4236 115.667 24.536 118.46 24.4316L119.922 24.3794V23.8573C119.922 23.1786 119.766 22.6826 119.479 22.3693C119.191 22.0561 118.722 21.8994 118.095 21.8994C117.39 21.8994 116.555 22.1083 115.667 22.5521L115.276 21.5601C115.693 21.3251 116.163 21.1424 116.659 21.0119C117.155 20.8813 117.677 20.803 118.173 20.803C119.191 20.803 119.948 21.038 120.444 21.4818C120.94 21.9255 121.175 22.6565 121.175 23.6746V29.5482H120.21ZM117.286 28.6345C118.095 28.6345 118.722 28.3996 119.191 27.9558C119.661 27.512 119.896 26.8855 119.896 26.0762V25.2931L118.591 25.3453C117.547 25.3714 116.816 25.5541 116.346 25.8413C115.876 26.1284 115.667 26.5722 115.667 27.1726C115.667 27.6425 115.798 28.008 116.085 28.2429C116.372 28.504 116.764 28.6345 117.286 28.6345Z" fill="white"/>
<path d="M121.933 20.9336H123.316L125.196 25.8413C125.613 26.9638 125.874 27.7731 125.953 28.2691H126.005C126.083 28.008 126.214 27.5381 126.423 26.9116C126.632 26.259 127.362 24.275 128.563 20.9597H129.973L126.318 30.749C125.953 31.7149 125.535 32.3936 125.039 32.8113C124.543 33.229 123.943 33.4117 123.238 33.4117C122.846 33.4117 122.455 33.3595 122.063 33.2812V32.237C122.35 32.2892 122.664 32.3414 123.029 32.3414C123.917 32.3414 124.569 31.8454 124.935 30.8273L125.405 29.6004L121.933 20.9336Z" fill="white"/>
<path d="M82.0178 21.7428C82.4355 22.0822 83.297 22.8131 83.297 24.1706C83.297 25.502 82.5399 26.1285 81.7829 26.7289C81.5479 26.9638 81.2869 27.2249 81.2869 27.6165C81.2869 28.008 81.5479 28.2169 81.7568 28.3996L82.4094 28.8956C83.1925 29.5743 83.9235 30.1747 83.9235 31.4278C83.9235 33.1246 82.2789 34.8214 79.1985 34.8214C76.588 34.8214 75.335 33.5684 75.335 32.237C75.335 31.5844 75.6482 30.6707 76.7185 30.0442C77.841 29.3655 79.3551 29.2611 80.1644 29.2089C79.9033 28.8956 79.6162 28.5562 79.6162 27.9819C79.6162 27.6687 79.6945 27.4859 79.7989 27.2771C79.5901 27.3032 79.4073 27.3032 79.2246 27.3032C77.3189 27.3032 76.2486 25.8935 76.2486 24.4839C76.2486 23.6485 76.6141 22.7348 77.3973 22.0822C78.4153 21.2468 79.6423 21.0902 80.6082 21.0902H84.3151L83.1665 21.7428H82.0178ZM80.7387 29.731C80.5821 29.7049 80.5037 29.7049 80.321 29.7049C80.1644 29.7049 79.1985 29.731 78.4415 29.992C78.0499 30.1225 76.9013 30.5663 76.9013 31.8455C76.9013 33.1246 78.1543 34.0383 80.06 34.0383C81.7829 34.0383 82.6966 33.2029 82.6966 32.1065C82.6966 31.1928 82.0961 30.6968 80.7387 29.731ZM81.2608 26.3112C81.6785 25.8935 81.7046 25.3192 81.7046 25.006C81.7046 23.7007 80.9214 21.6906 79.4334 21.6906C78.9635 21.6906 78.4676 21.9256 78.1804 22.291C77.8671 22.6565 77.7888 23.1525 77.7888 23.6224C77.7888 24.8232 78.4937 26.8333 80.0339 26.8333C80.4776 26.8072 80.9475 26.5984 81.2608 26.3112Z" fill="white"/>
<path d="M70.6884 29.4438C67.8429 29.4438 66.3027 27.2249 66.3027 25.2148C66.3027 22.8654 68.2345 20.8553 70.9494 20.8553C73.586 20.8553 75.2306 22.9176 75.2306 25.0843C75.2306 27.1988 73.6121 29.4438 70.6884 29.4438ZM72.9334 27.9819C73.3772 27.4076 73.4816 26.6767 73.4816 25.998C73.4816 24.4056 72.7246 21.4035 70.5056 21.4035C69.9052 21.4035 69.3309 21.6384 68.8871 22.0039C68.1823 22.6304 68.0518 23.4136 68.0518 24.1967C68.0518 25.9719 68.9393 28.8956 71.106 28.8956C71.7848 28.8956 72.5157 28.5563 72.9334 27.9819Z" fill="white"/>
<path d="M60.9511 29.4438C58.1056 29.4438 56.5654 27.2249 56.5654 25.2148C56.5654 22.8654 58.4972 20.8553 61.2121 20.8553C63.8487 20.8553 65.4933 22.9176 65.4933 25.0843C65.4933 27.1988 63.8748 29.4438 60.9511 29.4438ZM63.1961 27.9819C63.6399 27.4076 63.7443 26.6767 63.7443 25.998C63.7443 24.4056 62.9873 21.4035 60.7683 21.4035C60.1679 21.4035 59.5936 21.6384 59.1498 22.0039C58.445 22.6304 58.3145 23.4136 58.3145 24.1967C58.3145 25.9719 59.202 28.8956 61.3688 28.8956C62.0475 28.8956 62.7784 28.5563 63.1961 27.9819Z" fill="white"/>
<path d="M55.182 29.1567L52.5977 29.7571C51.5535 29.9138 50.6137 30.0704 49.6217 30.0704C44.6356 30.0704 42.73 26.4157 42.73 23.5442C42.73 20.0461 45.4188 16.783 50.0133 16.783C50.9792 16.783 51.9189 16.9396 52.7804 17.1745C54.1378 17.5661 54.7644 18.036 55.1559 18.2971L53.668 19.7328L53.0414 19.8895L53.4852 19.1585C52.8587 18.5581 51.7623 17.4617 49.6217 17.4617C46.7763 17.4617 44.6095 19.6284 44.6095 22.7871C44.6095 26.1808 47.0634 29.3656 51.0053 29.3656C52.1539 29.3656 52.7543 29.1306 53.3025 28.9218V26.0241L50.5876 26.1808L52.0233 25.3976H55.8608L55.3909 25.8414C55.2604 25.9458 55.2343 25.998 55.2082 26.1285C55.182 26.2852 55.182 26.8073 55.182 26.99V29.1567Z" fill="white"/>
<path d="M87.7088 28.6346C87.1083 28.5824 86.9778 28.4779 86.9778 27.7731V27.5643V17.54C86.9778 17.5138 86.9778 17.4616 86.9778 17.4355C87.0561 16.809 87.2389 16.7046 87.7871 16.3652H85.2027L83.8452 17.0179H85.2288V27.5643V28.1647C85.2288 28.5301 85.1505 28.5824 84.7328 29.1306H87.9176L88.5963 28.739C88.3353 28.6868 88.022 28.6868 87.7088 28.6346Z" fill="white"/>
<path d="M95.0704 28.8173C94.8616 28.9217 94.6788 29.0522 94.47 29.1305C93.8696 29.3916 93.2692 29.4699 92.721 29.4699C92.1467 29.4699 91.2591 29.4438 90.3454 28.7651C89.0663 27.8775 88.5181 26.3373 88.5181 24.9798C88.5181 22.2127 90.7892 20.8291 92.6165 20.8291C93.2692 20.8291 93.9218 20.9858 94.47 21.3251C95.3576 21.9256 95.5925 22.6826 95.723 23.1003L91.5201 24.7971L90.1366 24.9015C90.5804 27.1727 92.1206 28.504 93.8435 28.504C94.7572 28.504 95.4098 28.1908 96.0363 27.8775L95.0704 28.8173ZM93.3736 23.4658C93.7129 23.3352 93.8957 23.2308 93.8957 22.9698C93.8957 22.2649 93.0864 21.4296 92.1205 21.4296C91.3896 21.4296 90.0583 21.9778 90.0583 23.9095C90.0583 24.2228 90.0844 24.5361 90.1105 24.8493L93.3736 23.4658Z" fill="white"/>
<path d="M96.7933 20.9597V22.1344H96.6367V20.9597H96.2451V20.8291H97.1588V20.9597H96.7933Z" fill="white"/>
<path d="M98.4117 22.1606V20.9598L98.0462 22.1606H97.9418L97.5763 20.9598V22.1606H97.4458V20.8553H97.6807L98.0201 21.8995L98.3595 20.8553H98.5944V22.1606H98.4117Z" fill="white"/>
<path d="M46.332 13.2588H45.4444C45.4444 13.1282 45.3661 12.7889 45.1834 12.2146H43.8782C43.6954 12.7889 43.6171 13.1282 43.6171 13.2588H42.7817C42.7817 13.1805 42.9906 12.58 43.4344 11.4575C43.8781 10.335 44.087 9.70849 44.087 9.60407H45.1573C45.1573 9.70849 45.3661 10.3089 45.7577 11.4314C46.1232 12.5539 46.332 13.1544 46.332 13.2588ZM45.0268 11.6664C44.7135 10.7005 44.5569 10.1784 44.5569 10.1001H44.5047C44.5047 10.1784 44.348 10.7005 44.0087 11.6664H45.0268Z" fill="white"/>
<path d="M49.9347 13.2587H49.2299C49.2299 13.1804 48.9688 12.7888 48.4467 12.0318C47.8985 11.2486 47.6114 10.7265 47.533 10.4394H47.4808C47.533 10.8571 47.5591 11.2225 47.5591 11.5619C47.5591 12.0318 47.5591 12.58 47.6113 13.2587H46.9326C46.9587 12.6844 46.9848 12.0318 46.9848 11.3531C46.9848 10.6743 46.9587 10.1 46.9326 9.60404H47.768C47.768 9.70846 48.0029 10.1 48.4728 10.7788C48.9688 11.5097 49.256 12.0057 49.3082 12.2667H49.3604C49.3082 11.8491 49.2821 11.4836 49.2821 11.1442C49.2821 10.6482 49.256 10.1261 49.2299 9.57793H49.9347C49.9086 10.0478 49.8825 10.6221 49.8825 11.327C49.9086 12.0579 49.9086 12.6844 49.9347 13.2587Z" fill="white"/>
<path d="M54.0069 11.3009C54.0069 11.823 53.8241 12.2929 53.4848 12.6845C53.1454 13.076 52.6755 13.2849 52.049 13.2849C51.7619 13.2849 51.3964 13.2849 50.9004 13.2588C50.9265 12.6845 50.9265 12.0579 50.9265 11.3531C50.9265 10.6744 50.9265 10.1001 50.9004 9.60407H51.3964C51.4747 9.60407 51.6052 9.60407 51.7619 9.60407C51.9185 9.60407 52.0229 9.60407 52.0751 9.60407C52.7538 9.60407 53.2498 9.7607 53.537 10.1001C53.8503 10.4394 54.0069 10.831 54.0069 11.3009ZM53.2498 11.4314C53.2498 11.066 53.1454 10.7788 52.9366 10.5177C52.7277 10.2828 52.4145 10.1523 51.9707 10.1523C51.8924 10.1523 51.788 10.1523 51.6313 10.1784C51.6574 10.5438 51.6574 10.9354 51.6574 11.3531C51.6574 11.7969 51.6574 12.2407 51.6835 12.6845C51.8141 12.7106 51.9185 12.7106 52.049 12.7106C52.4406 12.7106 52.7538 12.58 52.9366 12.3451C53.1454 12.084 53.2498 11.7708 53.2498 11.4314Z" fill="white"/>
<path d="M57.7663 13.2588H56.9309C56.7221 12.6061 56.5393 12.1885 56.4349 12.0318C56.3305 11.8752 56.1217 11.7969 55.8867 11.7969C55.7823 11.7969 55.6779 11.7969 55.5734 11.7969C55.5734 12.2668 55.5735 12.7628 55.5996 13.2588H54.8164C54.8425 12.6845 54.8425 12.0579 54.8425 11.3531C54.8425 10.6744 54.8425 10.1001 54.8164 9.60407H55.3124C55.3646 9.60407 55.4951 9.60407 55.6518 9.60407C55.8345 9.60407 55.9911 9.60407 56.1478 9.60407C57.0092 9.60407 57.4269 9.89123 57.4269 10.4916C57.4269 10.9615 57.192 11.2748 56.696 11.4575V11.5097C56.8787 11.5619 57.0614 11.7186 57.192 11.9535C57.3225 12.1624 57.5052 12.6061 57.7663 13.2588ZM56.696 10.6744C56.696 10.3089 56.461 10.1262 55.965 10.1262C55.7823 10.1262 55.6257 10.1262 55.4951 10.1784C55.5212 10.4655 55.5212 10.8571 55.5212 11.3009C55.6257 11.3009 55.704 11.3009 55.7823 11.3009C56.4088 11.3009 56.696 11.0921 56.696 10.6744Z" fill="white"/>
<path d="M61.7861 11.3531C61.7861 11.9274 61.6034 12.3973 61.264 12.7889C60.9246 13.1544 60.4809 13.3632 59.9588 13.3632C59.4628 13.3632 59.0451 13.1805 58.7318 12.8411C58.3925 12.5018 58.2358 12.058 58.2358 11.5098C58.2358 10.9355 58.4186 10.4656 58.7579 10.074C59.0973 9.70852 59.5411 9.49968 60.0632 9.49968C60.5592 9.49968 60.9769 9.68242 61.2901 10.0218C61.6034 10.3873 61.7861 10.831 61.7861 11.3531ZM61.003 11.4314C61.003 11.0399 60.8985 10.7266 60.7158 10.4917C60.507 10.2567 60.272 10.1262 59.9849 10.1262C59.7238 10.1262 59.4889 10.2567 59.28 10.4917C59.0973 10.7266 58.9929 11.0399 58.9929 11.4314C58.9929 11.823 59.0973 12.1363 59.3061 12.3712C59.515 12.6062 59.7499 12.7367 60.0371 12.7367C60.2981 12.7367 60.5331 12.6062 60.7419 12.3712C60.8985 12.1363 61.003 11.823 61.003 11.4314Z" fill="white"/>
<path d="M63.3525 13.2588H62.5693C62.5954 12.6845 62.5954 12.0318 62.5954 11.3531C62.5954 10.6744 62.5954 10.1001 62.5693 9.60407H63.3525C63.3264 10.074 63.3264 10.6483 63.3264 11.3531C63.3264 12.0579 63.3525 12.6845 63.3525 13.2588Z" fill="white"/>
<path d="M67.4248 11.3009C67.4248 11.823 67.2421 12.2929 66.9027 12.6845C66.5634 13.076 66.0935 13.2849 65.467 13.2849C65.1798 13.2849 64.8144 13.2849 64.3184 13.2588C64.3445 12.6845 64.3445 12.0579 64.3445 11.3531C64.3445 10.6744 64.3445 10.1001 64.3184 9.60407H64.8144C64.8927 9.60407 65.0232 9.60407 65.1798 9.60407C65.3364 9.60407 65.4409 9.60407 65.4931 9.60407C66.1718 9.60407 66.6678 9.7607 66.955 10.1001C67.2682 10.4394 67.4248 10.831 67.4248 11.3009ZM66.6678 11.4314C66.6678 11.066 66.5634 10.7788 66.3545 10.5177C66.1457 10.2828 65.8324 10.1523 65.3887 10.1523C65.3103 10.1523 65.2059 10.1523 65.0493 10.1784C65.0754 10.5438 65.0754 10.9354 65.0754 11.3531C65.0754 11.7969 65.0754 12.2407 65.1015 12.6845C65.232 12.7106 65.3365 12.7106 65.467 12.7106C65.8586 12.7106 66.1718 12.58 66.3545 12.3451C66.5634 12.084 66.6678 11.7708 66.6678 11.4314Z" fill="white"/>
<path d="M72.8286 13.2588H71.941C71.941 13.1282 71.8627 12.7889 71.68 12.2146H70.3747C70.192 12.7889 70.1137 13.1282 70.1137 13.2588H69.2783C69.2783 13.1805 69.4872 12.58 69.9309 11.4575C70.3747 10.335 70.5836 9.70849 70.5836 9.60407H71.6539C71.6539 9.70849 71.8627 10.3089 72.2543 11.4314C72.6198 12.5539 72.8286 13.1544 72.8286 13.2588ZM71.5233 11.6664C71.2101 10.7005 71.0535 10.1784 71.0535 10.1001H71.0012C71.0012 10.1784 70.8446 10.7005 70.5053 11.6664H71.5233Z" fill="white"/>
<path d="M76.0919 10.57C76.0919 11.0137 75.9353 11.3531 75.5959 11.5619C75.2566 11.7708 74.865 11.8752 74.369 11.8752C74.2907 11.8752 74.2123 11.8752 74.1862 11.8752C74.1862 12.2146 74.1862 12.6845 74.2123 13.2588H73.4292C73.4553 12.7106 73.4553 12.084 73.4553 11.3531C73.4553 10.6744 73.4553 10.1001 73.4292 9.60407H73.9252C74.0035 9.60407 74.134 9.60407 74.3168 9.60407C74.5256 9.60407 74.6822 9.60407 74.8389 9.60407C75.2043 9.60407 75.4915 9.68239 75.7264 9.83902C75.9614 9.99565 76.0919 10.2306 76.0919 10.57ZM75.361 10.7266C75.361 10.335 75.0999 10.1262 74.5517 10.1262C74.4212 10.1262 74.2907 10.1523 74.134 10.1784C74.1601 10.5438 74.1601 10.9354 74.1601 11.3792C74.2124 11.3792 74.2646 11.3792 74.3168 11.3792C75.0216 11.3531 75.361 11.1443 75.361 10.7266Z" fill="white"/>
<path d="M79.4596 10.57C79.4596 11.0137 79.303 11.3531 78.9636 11.5619C78.6242 11.7708 78.2326 11.8752 77.7367 11.8752C77.6583 11.8752 77.58 11.8752 77.5539 11.8752C77.5539 12.2146 77.5539 12.6845 77.58 13.2588H76.7969C76.823 12.7106 76.823 12.084 76.823 11.3531C76.823 10.6744 76.823 10.1001 76.7969 9.60407H77.2929C77.3712 9.60407 77.5017 9.60407 77.6845 9.60407C77.8933 9.60407 78.0499 9.60407 78.2065 9.60407C78.572 9.60407 78.8592 9.68239 79.0941 9.83902C79.3291 9.99565 79.4596 10.2306 79.4596 10.57ZM78.7286 10.7266C78.7286 10.335 78.4676 10.1262 77.9194 10.1262C77.7889 10.1262 77.6583 10.1523 77.5017 10.1784C77.5278 10.5438 77.5278 10.9354 77.5278 11.3792C77.58 11.3792 77.6322 11.3792 77.6845 11.3792C78.3893 11.3531 78.7286 11.1443 78.7286 10.7266Z" fill="white"/>
<path d="M84.9414 11.3531C84.9414 11.9274 84.7587 12.3973 84.4193 12.7889C84.0799 13.1544 83.6361 13.3632 83.114 13.3632C82.618 13.3632 82.2004 13.1805 81.8871 12.8411C81.5477 12.5018 81.3911 12.058 81.3911 11.5098C81.3911 10.9355 81.5738 10.4656 81.9132 10.074C82.2526 9.70852 82.6964 9.49968 83.2185 9.49968C83.7145 9.49968 84.1321 9.68242 84.4454 10.0218C84.7848 10.3873 84.9414 10.831 84.9414 11.3531ZM84.1843 11.4314C84.1843 11.0399 84.0799 10.7266 83.8972 10.4917C83.6884 10.2567 83.4534 10.1262 83.1663 10.1262C82.9052 10.1262 82.6703 10.2567 82.4614 10.4917C82.2787 10.7266 82.1743 11.0399 82.1743 11.4314C82.1743 11.823 82.2787 12.1363 82.4875 12.3712C82.6964 12.6062 82.9313 12.7367 83.2185 12.7367C83.4795 12.7367 83.7145 12.6062 83.9233 12.3712C84.0799 12.1363 84.1843 11.823 84.1843 11.4314Z" fill="white"/>
<path d="M88.7526 13.2587H88.0477C88.0477 13.1804 87.7867 12.7888 87.2646 12.0318C86.7164 11.2486 86.4292 10.7265 86.3509 10.4394H86.2987C86.3509 10.8571 86.377 11.2225 86.377 11.5619C86.377 12.0318 86.377 12.58 86.4292 13.2587H85.7505C85.7766 12.6844 85.8027 12.0318 85.8027 11.3531C85.8027 10.6743 85.7766 10.1 85.7505 9.60404H86.5858C86.5858 9.70846 86.8208 10.1 87.2907 10.7788C87.7867 11.5097 88.0738 12.0057 88.126 12.2667H88.1782C88.126 11.8491 88.0999 11.4836 88.0999 11.1442C88.0999 10.6482 88.0999 10.1261 88.0477 9.57793H88.7526C88.7265 10.0478 88.7003 10.6221 88.7003 11.327C88.7265 12.0579 88.7265 12.6844 88.7526 13.2587Z" fill="white"/>
</g>
<defs>
<linearGradient id="paint0_linear_7919_32" x1="19.6982" y1="9.13042" x2="19.6982" y2="38.7081" gradientUnits="userSpaceOnUse">
<stop stop-color="#2079B0"/>
<stop offset="0.2863" stop-color="#4A93B8"/>
<stop offset="0.767" stop-color="#83BEBF"/>
<stop offset="1" stop-color="#97CFBF"/>
</linearGradient>
<linearGradient id="paint1_linear_7919_32" x1="12.2408" y1="16.471" x2="31.1615" y2="16.471" gradientUnits="userSpaceOnUse">
<stop stop-color="#5ABCAB"/>
<stop offset="1" stop-color="#E6E99A"/>
</linearGradient>
<linearGradient id="paint2_linear_7919_32" x1="21.701" y1="23.9194" x2="21.701" y2="38.8156" gradientUnits="userSpaceOnUse">
<stop stop-color="#E53432"/>
<stop offset="0.1668" stop-color="#D73948"/>
<stop offset="0.5748" stop-color="#B33F72"/>
<stop offset="0.8619" stop-color="#9A4189"/>
<stop offset="1" stop-color="#904192"/>
</linearGradient>
<linearGradient id="paint3_linear_7919_32" x1="32.5985" y1="19.9471" x2="32.5985" y2="27.8913" gradientUnits="userSpaceOnUse">
<stop stop-color="#F18779"/>
<stop offset="0.1194" stop-color="#F2917A"/>
<stop offset="0.7128" stop-color="#FABC77"/>
<stop offset="1" stop-color="#FDCB72"/>
</linearGradient>
<clipPath id="clip0_7919_32">
<rect width="136.216" height="44.434" fill="white" transform="translate(0.78418)"/>
</clipPath>
</defs>
</svg>
